#!OML:ASF E:\acrobat2\Project_11_07_03\Capture day 1\Session 1\Acrobat.ASF
:FULLY-SPECIFIED
:DEGREES
398
root 9.05311 9.597 6.53806 -32.9935 9.60711 -6.96519
lowerback 22.7497 -2.7841 1.6102
upperback 7.65213 -3.19582 0.659913
thorax -4.34083 -1.55482 0.617083
lowerneck -9.29945 -1.25008 0.207526
upperneck 4.59943 -1.84171 2.11908
head 3.1383 -0.823381 0.552183
rclavicle 1.25731e-014 1.27222e-014
rhumerus 38.2567 5.22302 -15.54
rradius 61.6974
rwrist -10.3481
rhand -7.21461 -21.7635
rfingers 7.12502
rthumb 18.6644 -50.8881
lclavicle 1.25731e-014 1.27222e-014
lhumerus 59.7704 -6.26296 17.3614
lradius 50.0601
lwrist 11.1021
lhand -35.9575 -29.2248
lfingers 7.12502
lthumb -9.06877 0.560235
rfemur -76.9421 -10.8746 19.7423
rtibia 62.0862
rfoot -188.92 7.86087
rtoes -6.57147
lfemur -49.0026 11.5116 -11.6862
ltibia 42.3908
lfoot -159.409 -13.8975
ltoes 42.2152
399
root 9.0677 9.69415 6.57999 -33.6357 9.30464 -5.89602
lowerback 22.7857 -2.69321 1.19181
upperback 7.86839 -3.18019 0.532262
thorax -4.11009 -1.55043 0.707901
lowerneck -9.53597 -1.05807 -0.376687
upperneck 5.08964 -1.53067 2.21361
head 3.35834 -0.671787 0.704179
rclavicle -1.40143e-014 1.19271e-014
rhumerus 40.0364 8.23719 -14.1112
rradius 63.6816
rwrist -9.27376
rhand -7.03058 -21.1791
rfingers 7.12502
rthumb 18.8414 -50.2866
lclavicle -1.40143e-014 1.19271e-014
lhumerus 59.3064 -7.05485 17.8132
lradius 51.5433
lwrist 10.1994
lhand -35.3881 -30.0864
lfingers 7.12502
lthumb -8.51934 -0.278236
rfemur -75.2731 -11.0752 19.7599
rtibia 58.3137
rfoot -188.779 8.22253
rtoes -4.27609
lfemur -48.884 11.9067 -11.8508
ltibia 43.0018
lfoot -156.473 -14.7452
ltoes 46.073
400
root 9.08176 9.77811 6.61701 -34.1794 8.94897 -4.93152
lowerback 22.6828 -2.30337 1.26779
upperback 7.90282 -2.68386 0.0887822
thorax -4.04731 -1.29891 0.0567623
lowerneck -8.51726 -1.2445 0.460673
upperneck 5.03302 -1.8519 1.91813
head 3.13157 -0.832384 0.445256
rclavicle -3.19546e-014 1.51076e-014
rhumerus 40.2691 11.205 -13.0094
rradius 65.7336
rwrist -8.20786
rhand -7.00118 -20.2027
rfingers 7.12502
rthumb 18.8697 -49.3074
lclavicle -3.19546e-014 1.51076e-014
lhumerus 59.987 -8.67508 17.8077
lradius 53.4832
lwrist 9.56579
lhand -34.7055 -30.5054
lfingers 7.12502
lthumb -7.86054 -0.671507
rfemur -73.5438 -11.2547 19.8459
rtibia 54.7229
rfoot -188.134 8.40285
rtoes -0.668263
lfemur -49.1704 12.4643 -12.0777
ltibia 43.3576
lfoot -157.211 -9.47681
ltoes 40.5606
401
root 9.0936 9.85051 6.64885 -34.7727 8.65063 -4.18929
lowerback 22.7097 -2.23801 1.12491
upperback 8.11222 -2.63376 0.0504569
thorax -3.82864 -1.27519 0.0797722
lowerneck -8.45851 -1.19637 0.291752
upperneck 5.29017 -1.74723 1.56807
head 3.20549 -0.79641 0.366393
rclavicle 1.31198e-014 -3.97569e-015
rhumerus 41.9639 13.9038 -11.5642
rradius 67.695
rwrist -7.04454
rhand -6.58984 -19.0887
rfingers 7.12502
rthumb 19.2653 -48.1544
lclavicle 1.31198e-014 -3.97569e-015
lhumerus 59.5755 -9.58132 18.218
lradius 55.6607
lwrist 8.80169
lhand -34.3681 -30.7443
lfingers 7.12502
lthumb -7.53483 -0.898491
rfemur -71.5952 -11.6026 20.076
rtibia 51.4689
rfoot -187.217 8.65625
rtoes 1.52919
lfemur -49.7592 13.0252 -12.4122
ltibia 43.7001
lfoot -159.994 -3.34515
ltoes 28.1396
402
root 9.10313 9.91317 6.67666 -35.2719 8.25259 -3.6813
lowerback 22.7712 -2.16991 1.2021
upperback 8.18348 -2.52689 0.0950421
thorax -3.78194 -1.22222 0.0569914
lowerneck -8.42281 -1.09637 -0.100817
upperneck 5.84424 -1.57703 1.56963
head 3.39362 -0.717389 0.445202
rclavicle 1.635e-014 -3.97569e-016
rhumerus 43.5579 16.655 -10.3067
rradius 69.6938
rwrist -5.35691
rhand -6.30407 -18.1684
rfingers 7.12502
rthumb 19.54 -47.2065
lclavicle 1.635e-014 -3.97569e-016
lhumerus 59.1507 -10.7204 18.4906
lradius 58.1838
lwrist 8.3713
lhand -33.9324 -30.8111
lfingers 7.12502
lthumb -7.11432 -0.950695
rfemur -69.6119 -11.9625 20.6296
rtibia 48.4239
rfoot -186.088 9.08502
rtoes 3.12231
lfemur -50.8136 13.659 -12.701
ltibia 44.4818
lfoot -165.497 -0.031
ltoes 16.5617
403
root 9.11386 9.96229 6.69961 -35.7404 8.0878 -2.92788
lowerback 22.879 -2.09312 0.864891
upperback 8.33927 -2.49715 0.146043
thorax -3.65026 -1.21278 0.295541
lowerneck -8.47714 -0.964492 -1.05655
upperneck 6.24046 -1.32633 1.97341
head 3.55463 -0.59713 0.762294
rclavicle -6.021e-015 6.05051e-015
rhumerus 45.5189 19.1808 -8.98443
rradius 71.5988
rwrist -3.43708
rhand -6.30198 -17.4652
rfingers 7.12502
rthumb 19.542 -46.5031
lclavicle -6.021e-015 6.05051e-015
lhumerus 58.7329 -11.6897 18.7315
lradius 60.6833
lwrist 8.29268
lhand -33.3463 -31.0432
lfingers 7.12502
lthumb -6.54857 -1.16447
rfemur -67.578 -12.473 20.7905
rtibia 45.4547
rfoot -184.692 9.6112
rtoes 5.55459
lfemur -52.0446 14.1856 -13.4219
ltibia 46.0665
lfoot -170.89 -0.485918
ltoes 18.2826
